<?xml version="1.0" encoding="UTF-8"?>
<svg width="100" height="100" viewBox="0 0 100 100" xmlns="http://www.w3.org/2000/svg">
  <!-- Tanque de peixes -->
  <rect x="10" y="60" width="80" height="30" fill="none" stroke="#5090d3" stroke-width="2" rx="3"/>
  
  <!-- Água -->
  <path d="M 12 75 L 88 75" stroke="#5090d3" stroke-width="1" stroke-dasharray="2,2"/>
  <path d="M 15 80 L 85 80" stroke="#5090d3" stroke-width="1" stroke-dasharray="2,2"/>
  <path d="M 12 85 L 88 85" stroke="#5090d3" stroke-width="1" stroke-dasharray="2,2"/>
  
  <!-- Peixe -->
  <path d="M 35 70 C 40 65, 45 65, 50 70 C 45 75, 40 75, 35 70 Z" fill="#5090d3"/>
  <circle cx="45" cy="68" r="1" fill="white"/>
  
  <!-- Peixe 2 -->
  <path d="M 60 80 C 65 75, 70 75, 75 80 C 70 85, 65 85, 60 80 Z" fill="#5090d3"/>
  <circle cx="70" cy="78" r="1" fill="white"/>
  
  <!-- Tubulação -->
  <path d="M 50 60 L 50 30" stroke="#5090d3" stroke-width="2"/>
  
  <!-- Canteiro de plantas -->
  <rect x="30" y="10" width="40" height="20" fill="none" stroke="#5090d3" stroke-width="2" rx="2"/>
  
  <!-- Plantas -->
  <path d="M 40 10 Q 40 5, 45 8" stroke="#4caf50" stroke-width="1.5"/>
  <path d="M 40 10 Q 40 5, 35 8" stroke="#4caf50" stroke-width="1.5"/>
  <path d="M 40 10 L 40 15" stroke="#4caf50" stroke-width="1.5"/>
  
  <path d="M 50 10 Q 50 3, 55 7" stroke="#4caf50" stroke-width="1.5"/>
  <path d="M 50 10 Q 50 3, 45 7" stroke="#4caf50" stroke-width="1.5"/>
  <path d="M 50 10 L 50 17" stroke="#4caf50" stroke-width="1.5"/>
  
  <path d="M 60 10 Q 60 5, 65 8" stroke="#4caf50" stroke-width="1.5"/>
  <path d="M 60 10 Q 60 5, 55 8" stroke="#4caf50" stroke-width="1.5"/>
  <path d="M 60 10 L 60 15" stroke="#4caf50" stroke-width="1.5"/>
  
  <!-- Raízes -->
  <path d="M 40 15 Q 38 17, 41 20" stroke="#8B4513" stroke-width="1"/>
  <path d="M 40 15 Q 42 17, 39 20" stroke="#8B4513" stroke-width="1"/>
  
  <path d="M 50 17 Q 48 20, 51 23" stroke="#8B4513" stroke-width="1"/>
  <path d="M 50 17 Q 52 20, 49 23" stroke="#8B4513" stroke-width="1"/>
  
  <path d="M 60 15 Q 58 17, 61 20" stroke="#8B4513" stroke-width="1"/>
  <path d="M 60 15 Q 62 17, 59 20" stroke="#8B4513" stroke-width="1"/>
  
  <!-- Gotas de água -->
  <path d="M 48 35 Q 50 40, 52 35 Z" fill="#5090d3"/>
  <path d="M 45 45 Q 47 50, 49 45 Z" fill="#5090d3"/>
  <path d="M 51 45 Q 53 50, 55 45 Z" fill="#5090d3"/>
</svg>